<svg width="618" height="309" viewBox="0 0 618 309" fill="none" xmlns="http://www.w3.org/2000/svg">
<g clip-path="url(#clip0_389_574)">
<path d="M138.88 152.907V179.533C135.706 194.11 128.766 205.143 118.056 212.629C107.347 220.116 95.3975 223.859 82.2087 223.859C65.6479 223.859 51.5416 217.662 39.8899 205.266C28.2392 192.871 22.4141 177.897 22.4141 160.345C22.4141 142.496 28.1158 127.423 39.5193 115.128C50.9227 102.832 65.1524 96.6834 82.2087 96.6834C102.141 96.6834 117.908 103.674 129.51 117.656L111.213 137.736C104.668 127.225 95.5456 121.97 83.8441 121.97C75.217 121.97 67.8547 125.713 61.7562 133.2C55.6577 140.687 52.6085 149.735 52.6085 160.345C52.6085 170.758 55.6577 179.657 61.7562 187.045C67.8547 194.432 75.217 198.126 83.8441 198.126C90.9843 198.126 97.2072 195.97 102.512 191.657C107.817 187.343 110.47 181.616 110.47 174.475H82.2087V152.907H138.88Z" fill="#504F1B" fill-opacity="0.4"/>
<path d="M138.57 221.628V145.322H164.898V156.329H165.196C165.394 155.933 165.716 155.438 166.163 154.843C166.61 154.247 167.576 153.205 169.063 151.719C170.55 150.231 172.137 148.893 173.822 147.703C175.508 146.512 177.69 145.446 180.367 144.505C183.045 143.562 185.772 143.091 188.548 143.091C191.424 143.091 194.251 143.488 197.028 144.281C199.804 145.075 201.837 145.868 203.126 146.662L205.208 147.85L194.202 170.163C190.928 167.387 186.366 165.998 180.517 165.998C177.343 165.998 174.616 166.693 172.336 168.081C170.054 169.469 168.442 171.155 167.5 173.138C166.558 175.121 165.889 176.807 165.492 178.195C165.096 179.584 164.898 180.674 164.898 181.466V221.628H138.57Z" fill="#504F1B" fill-opacity="0.4"/>
<path d="M277.192 187.12H221.861C221.861 192.474 223.596 196.44 227.067 199.018C230.538 201.596 234.306 202.885 238.372 202.885C242.635 202.885 246.006 202.315 248.484 201.175C250.964 200.035 253.79 197.78 256.964 194.408L276.004 203.927C268.07 217.215 254.881 223.859 236.437 223.859C224.933 223.859 215.067 219.918 206.836 212.035C198.607 204.151 194.492 194.656 194.492 183.551C194.492 172.444 198.607 162.924 206.836 154.992C215.067 147.058 224.933 143.091 236.437 143.091C248.535 143.091 258.377 146.587 265.962 153.578C273.548 160.569 277.341 170.56 277.341 183.549C277.341 185.335 277.292 186.525 277.192 187.12ZM222.604 172.542H251.61C251.014 168.576 249.452 165.527 246.924 163.394C244.395 161.262 241.148 160.196 237.182 160.196C232.818 160.196 229.347 161.337 226.769 163.618C224.191 165.899 222.802 168.874 222.604 172.542Z" fill="#504F1B" fill-opacity="0.4"/>
<path d="M354.235 187.12H298.904C298.904 192.474 300.639 196.44 304.11 199.018C307.581 201.596 311.349 202.885 315.415 202.885C319.678 202.885 323.049 202.315 325.527 201.175C328.007 200.035 330.833 197.78 334.006 194.408L353.047 203.927C345.113 217.215 331.924 223.859 313.479 223.859C301.976 223.859 292.11 219.918 283.879 212.035C275.65 204.151 271.535 194.656 271.535 183.551C271.535 172.444 275.65 162.924 283.879 154.992C292.11 147.058 301.976 143.091 313.479 143.091C325.578 143.091 335.42 146.587 343.005 153.578C350.591 160.569 354.384 170.56 354.384 183.549C354.384 185.335 354.335 186.525 354.235 187.12ZM299.647 172.542H328.653C328.057 168.576 326.495 165.527 323.967 163.394C321.438 161.262 318.191 160.196 314.225 160.196C309.861 160.196 306.39 161.337 303.812 163.618C301.234 165.899 299.845 168.874 299.647 172.542Z" fill="#504F1B" fill-opacity="0.4"/>
<path d="M354.082 221.628V145.322H380.409V153.354H380.708C387.55 146.512 394.838 143.091 402.574 143.091C406.341 143.091 410.084 143.587 413.802 144.579C417.521 145.57 421.091 147.107 424.513 149.189C427.934 151.272 430.71 154.222 432.843 158.041C434.975 161.858 436.041 166.295 436.041 171.352V221.628H409.714V178.491C409.714 174.525 408.449 171.055 405.919 168.081C403.391 165.106 400.094 163.618 396.028 163.618C392.062 163.618 388.467 165.155 385.243 168.23C382.021 171.303 380.409 174.724 380.409 178.491V221.628H354.082Z" fill="#504F1B" fill-opacity="0.4"/>
<path d="M442.278 102.782C445.353 99.7075 449.022 98.1698 453.287 98.1698C457.551 98.1698 461.22 99.7075 464.293 102.782C467.368 105.855 468.905 109.524 468.905 113.789C468.905 118.053 467.368 121.723 464.293 124.797C461.22 127.871 457.551 129.407 453.287 129.407C449.022 129.407 445.353 127.871 442.278 124.797C439.205 121.723 437.668 118.053 437.668 113.789C437.668 109.524 439.205 105.855 442.278 102.782ZM439.75 145.322V221.628H466.078V145.322H439.75Z" fill="#504F1B" fill-opacity="0.4"/>
<path d="M476.487 145.322V129.109C476.586 117.706 479.264 108.583 484.519 101.741C489.774 94.8984 497.063 91.4771 506.385 91.4771C510.352 91.4771 514.144 92.0471 517.763 93.1871C521.383 94.327 523.986 95.4926 525.573 96.6834L528.101 98.3188L518.879 116.912C516.499 115.524 513.872 114.83 510.996 114.83C507.723 114.83 505.542 115.946 504.45 118.177C503.359 120.408 502.815 124.299 502.815 129.853V145.322H520.367V165.402H502.815V221.628H476.487V165.402H465.48V145.322H476.487Z" fill="#504F1B" fill-opacity="0.4"/>
<path d="M573.014 145.322H603.359L543.416 260.301H513.07L539.398 209.729L503.254 145.322H533.597L554.868 184.441L573.014 145.322Z" fill="#504F1B" fill-opacity="0.4"/>
<path d="M132.305 146.333V172.959C129.132 187.536 122.191 198.569 111.482 206.055C100.773 213.542 88.8233 217.286 75.6345 217.286C59.0736 217.286 44.9674 211.088 33.3157 198.692C21.665 186.297 15.8398 171.323 15.8398 153.771C15.8398 135.922 21.5416 120.849 32.945 108.554C44.3485 96.2578 58.5782 90.1095 75.6345 90.1095C95.5663 90.1095 111.334 97.1002 122.936 111.082L104.639 131.162C98.094 120.651 88.9714 115.396 77.2699 115.396C68.6428 115.396 61.2805 119.139 55.182 126.626C49.0835 134.113 46.0343 143.161 46.0343 153.771C46.0343 164.184 49.0835 173.084 55.182 180.471C61.2805 187.859 68.6428 191.552 77.2699 191.552C84.4101 191.552 90.6329 189.396 95.9379 185.083C101.243 180.769 103.895 175.042 103.895 167.902H75.6345V146.333H132.305Z" fill="#504F1B"/>
<path d="M131.996 215.054V138.748H158.324V149.755H158.622C158.82 149.359 159.142 148.864 159.588 148.269C160.035 147.673 161.002 146.631 162.489 145.145C163.976 143.658 165.562 142.319 167.248 141.129C168.934 139.938 171.116 138.872 173.793 137.931C176.47 136.988 179.197 136.517 181.974 136.517C184.85 136.517 187.676 136.914 190.453 137.707C193.23 138.501 195.263 139.294 196.552 140.088L198.634 141.276L187.628 163.589C184.354 160.813 179.792 159.424 173.942 159.424C170.769 159.424 168.042 160.119 165.761 161.507C163.48 162.896 161.868 164.581 160.926 166.564C159.984 168.547 159.315 170.233 158.918 171.621C158.521 173.01 158.324 174.1 158.324 174.892V215.054H131.996Z" fill="#504F1B"/>
<path d="M270.622 180.546H215.291C215.291 185.9 217.026 189.867 220.497 192.444C223.967 195.022 227.736 196.311 231.802 196.311C236.064 196.311 239.435 195.741 241.914 194.601C244.394 193.462 247.22 191.206 250.393 187.834L269.434 197.353C261.5 210.641 248.311 217.285 229.866 217.285C218.363 217.285 208.496 213.344 200.266 205.461C192.037 197.577 187.922 188.082 187.922 176.977C187.922 165.87 192.037 156.35 200.266 148.418C208.496 140.484 218.363 136.517 229.866 136.517C241.965 136.517 251.807 140.013 259.392 147.004C266.978 153.996 270.771 163.986 270.771 176.975C270.771 178.761 270.721 179.951 270.622 180.546ZM216.034 165.968H245.04C244.444 162.002 242.881 158.953 240.353 156.82C237.825 154.688 234.577 153.622 230.611 153.622C226.247 153.622 222.777 154.763 220.199 157.044C217.621 159.325 216.232 162.3 216.034 165.968Z" fill="#504F1B"/>
<path d="M347.661 180.546H292.33C292.33 185.9 294.065 189.867 297.536 192.444C301.007 195.022 304.775 196.311 308.841 196.311C313.103 196.311 316.474 195.741 318.953 194.601C321.433 193.462 324.259 191.206 327.432 187.834L346.473 197.353C338.539 210.641 325.35 217.285 306.905 217.285C295.402 217.285 285.535 213.344 277.305 205.461C269.076 197.577 264.961 188.082 264.961 176.977C264.961 165.87 269.076 156.35 277.305 148.418C285.535 140.484 295.402 136.517 306.905 136.517C319.004 136.517 328.846 140.013 336.431 147.004C344.017 153.996 347.81 163.986 347.81 176.975C347.81 178.761 347.76 179.951 347.661 180.546ZM293.073 165.968H322.079C321.483 162.002 319.92 158.953 317.392 156.82C314.864 154.688 311.617 153.622 307.65 153.622C303.287 153.622 299.816 154.763 297.238 157.044C294.66 159.325 293.271 162.3 293.073 165.968Z" fill="#504F1B"/>
<path d="M347.508 215.054V138.748H373.835V146.78H374.133C380.975 139.938 388.264 136.517 396 136.517C399.767 136.517 403.51 137.013 407.228 138.005C410.947 138.996 414.517 140.533 417.938 142.615C421.359 144.698 424.136 147.648 426.268 151.467C428.4 155.285 429.467 159.721 429.467 164.778V215.054H403.139V171.918C403.139 167.951 401.875 164.481 399.345 161.507C396.816 158.532 393.519 157.044 389.454 157.044C385.487 157.044 381.892 158.581 378.669 161.656C375.446 164.729 373.835 168.15 373.835 171.918V215.054H347.508Z" fill="#504F1B"/>
<path d="M435.704 96.2079C438.778 93.1335 442.448 91.5959 446.713 91.5959C450.977 91.5959 454.646 93.1335 457.719 96.2079C460.794 99.2814 462.331 102.95 462.331 107.215C462.331 111.479 460.794 115.149 457.719 118.223C454.646 121.297 450.977 122.833 446.713 122.833C442.448 122.833 438.778 121.297 435.704 118.223C432.63 115.149 431.094 111.479 431.094 107.215C431.094 102.95 432.63 99.2814 435.704 96.2079ZM433.176 138.748V215.054H459.504V138.748H433.176Z" fill="#504F1B"/>
<path d="M469.913 138.748V122.535C470.012 111.132 472.689 102.009 477.945 95.1667C483.2 88.3245 490.489 84.9032 499.811 84.9032C503.777 84.9032 507.57 85.4732 511.189 86.6132C514.808 87.7531 517.412 88.9187 518.999 90.1095L521.527 91.7449L512.304 110.338C509.925 108.95 507.297 108.256 504.421 108.256C501.149 108.256 498.967 109.372 497.876 111.603C496.785 113.834 496.24 117.725 496.24 123.279V138.748H513.793V158.828H496.24V215.054H469.913V158.828H458.906V138.748H469.913Z" fill="#504F1B"/>
<path d="M566.44 138.748H596.785L536.841 253.727H506.496L532.824 203.155L496.68 138.748H527.023L548.293 177.867L566.44 138.748Z" fill="#504F1B"/>
<mask id="mask0_389_574" style="mask-type:luminance" maskUnits="userSpaceOnUse" x="202" y="33" width="60" height="106">
<path d="M202.305 33.9003H261.077V138.941H202.305V33.9003Z" fill="white"/>
</mask>
<g mask="url(#mask0_389_574)">
<path d="M247.262 33.9003C248.599 40.5981 245.25 47.5064 240.427 52.3294C235.604 57.1631 229.433 60.3646 223.546 63.8083C217.648 67.252 211.762 71.1799 208.065 76.9194C204.843 81.911 203.526 87.8926 202.852 93.7904C202.01 100.951 202.125 108.46 204.4 115.2C206.054 111.135 208.213 107.249 210.666 103.616C215.489 96.4652 221.429 90.1571 227.337 83.8803C234.245 76.551 241.143 69.232 248.051 61.9023C240.901 75.2979 229.822 86.1025 220.46 98.055C211.098 110.018 203.116 124.299 203.99 139.463C204.685 131.702 210.982 125.541 217.817 121.792C224.652 118.043 232.308 115.947 239.037 112.03C251.769 104.616 260.331 90.4836 260.994 75.7613C261.668 60.8703 254.875 46.7059 247.262 33.9003Z" fill="#63822B"/>
</g>
<mask id="mask1_389_574" style="mask-type:luminance" maskUnits="userSpaceOnUse" x="154" y="40" width="45" height="81">
<path d="M154.379 40.294H198.965V120.405H154.379V40.294Z" fill="white"/>
</mask>
<g mask="url(#mask1_389_574)">
<mask id="mask2_389_574" style="mask-type:luminance" maskUnits="userSpaceOnUse" x="154" y="40" width="45" height="81">
<path d="M164.841 40.3243C163.83 45.4001 166.368 50.6339 170.023 54.2885C173.677 57.9427 178.353 60.3753 182.818 62.9869C187.283 65.5988 191.738 68.5684 194.549 72.9179C196.992 76.6982 197.982 81.2264 198.498 85.7025C199.12 91.1151 199.035 96.8126 197.309 101.92C196.055 98.8453 194.423 95.8962 192.559 93.1477C188.905 87.7347 184.408 82.9536 179.932 78.2042C174.698 72.6543 169.475 67.1044 164.241 61.5549C169.654 71.7066 178.047 79.8788 185.145 88.9459C192.243 98.0024 198.288 108.818 197.624 120.307C197.098 114.431 192.327 109.766 187.156 106.922C181.986 104.079 176.183 102.499 171.076 99.5294C161.429 93.8849 154.942 83.1855 154.437 72.0331C153.931 60.7544 159.081 50.0336 164.841 40.3243Z" fill="white"/>
</mask>
<g mask="url(#mask2_389_574)">
<path d="M199.118 40.3243V120.307H153.93V40.3243H199.118Z" fill="url(#paint0_linear_389_574)"/>
</g>
</g>
<path d="M377.658 262.355H381.122L373.412 226.977L362.531 255.377L351.649 226.977L343.891 262.355H347.404L352.528 238.737L362.531 264.306L372.485 238.737L377.658 262.355Z" fill="#63822B"/>
<path d="M402.344 251.619C402.344 253.718 401.611 255.572 400.148 257.084C398.684 258.646 396.878 259.427 394.78 259.427C392.633 259.427 390.828 258.646 389.364 257.084C387.9 255.572 387.217 253.718 387.217 251.619C387.217 249.57 387.9 247.715 389.364 246.154C390.828 244.593 392.633 243.812 394.78 243.812C396.878 243.812 398.684 244.593 400.148 246.154C401.611 247.715 402.344 249.57 402.344 251.619ZM405.759 262.354V240.884H402.344V244.593C402.148 244.3 401.904 244.056 401.709 243.812C399.66 241.567 397.171 240.396 394.244 240.396C391.267 240.396 388.778 241.567 386.729 243.812C384.777 246.057 383.801 248.643 383.801 251.619C383.801 254.645 384.777 257.231 386.729 259.427C388.778 261.72 391.267 262.842 394.244 262.842C397.171 262.842 399.66 261.72 401.709 259.427C401.904 259.232 402.148 258.988 402.344 258.695V262.354H405.759Z" fill="#63822B"/>
<path d="M424.102 245.325V240.884C423.419 240.592 422.687 240.445 421.955 240.445C419.515 240.445 417.758 241.811 416.636 244.446L416.49 245.325V240.884H413.074V262.355H416.49V251.619C416.49 249.863 416.88 248.301 417.71 246.886C418.1 246.154 418.637 245.52 419.271 245.032C419.906 244.544 420.687 244.251 421.565 244.251C422.443 244.251 423.273 244.642 424.102 245.325Z" fill="#63822B"/>
<path d="M431.666 262.355V252.058L440.107 262.355H444.646L435.228 251.278L444.06 240.835H439.522L431.666 250.546V225.758H428.25V262.355H431.666Z" fill="#63822B"/>
<path d="M469.775 251.131C469.775 248.204 468.603 245.666 466.359 243.47C464.163 241.372 461.528 240.299 458.551 240.299C455.429 240.299 452.793 241.421 450.598 243.617C448.402 245.813 447.328 248.448 447.328 251.522C447.328 254.645 448.402 257.28 450.598 259.427C451.623 260.451 452.793 261.232 454.16 261.818C455.526 262.403 457.136 262.696 459.039 262.696C460.943 262.696 462.796 262.11 464.651 260.939C466.505 259.768 467.871 258.109 468.799 256.06H464.895C464.114 257.084 463.187 257.865 462.065 258.451C460.943 259.037 459.771 259.28 458.551 259.28C456.697 259.28 455.038 258.695 453.574 257.475C452.11 256.304 451.183 254.791 450.891 252.937H469.775V251.131ZM466.164 250.009H450.939C451.135 249.131 451.476 248.301 451.964 247.52C453.525 244.983 455.721 243.714 458.551 243.714C460.357 243.714 461.967 244.3 463.382 245.471C464.846 246.691 465.725 248.204 466.164 250.009Z" fill="#63822B"/>
<path d="M472.699 244.056H478.067V262.354H481.482V244.056H486.801V240.884H481.482V232.54H478.067V240.884H472.699V244.056Z" fill="#63822B"/>
<mask id="mask3_389_574" style="mask-type:luminance" maskUnits="userSpaceOnUse" x="-62" y="-31" width="742" height="371">
<path d="M679.799 -30.9H-61.8008V339.9H679.799V-30.9Z" fill="black" fill-opacity="0.41"/>
</mask>
<g mask="url(#mask3_389_574)">
<mask id="mask4_389_574" style="mask-type:luminance" maskUnits="userSpaceOnUse" x="43" y="254" width="259" height="4">
<path d="M301.61 254.281H43.6328V257.619H301.61V254.281Z" fill="white"/>
</mask>
<g mask="url(#mask4_389_574)">
<mask id="mask5_389_574" style="mask-type:luminance" maskUnits="userSpaceOnUse" x="43" y="254" width="259" height="4">
<path d="M43.6797 254.369H301.538V257.601H43.6797V254.369Z" fill="white"/>
</mask>
<g mask="url(#mask5_389_574)">
<path d="M45.293 255.988H299.937" stroke="#8F8E3B" stroke-width="35.6007"/>
</g>
</g>
</g>
</g>
<defs>
<linearGradient id="paint0_linear_389_574" x1="176.625" y1="40.3242" x2="176.625" y2="120.307" gradientUnits="userSpaceOnUse">
<stop stop-color="#B4B34D"/>
<stop offset="0.25" stop-color="#B3B24D"/>
<stop offset="0.5" stop-color="#B3B24C"/>
<stop offset="0.75" stop-color="#B2B14C"/>
<stop offset="1" stop-color="#B1B04C"/>
</linearGradient>
<clipPath id="clip0_389_574">
<rect width="618" height="309" fill="white"/>
</clipPath>
</defs>
</svg>
